<?xml version="1.0" encoding="utf-8"?>
<!-- Generator: Adobe Illustrator 25.2.0, SVG Export Plug-In . SVG Version: 6.00 Build 0)  -->
<svg version="1.1" id="Layer_1" xmlns="http://www.w3.org/2000/svg" xmlns:xlink="http://www.w3.org/1999/xlink" x="0px" y="0px"
	 viewBox="0 0 449.9 91.9" style="enable-background:new 0 0 449.9 91.9;" xml:space="preserve">
<style type="text/css">
	.st0{fill:#1B57FD;}
</style>
<g>
	<g>
		<g>
			<rect x="126" y="7.5" class="st0" width="13.7" height="12.6"/>
			<rect x="126" y="26.6" class="st0" width="13.7" height="64"/>
			<polygon class="st0" points="213.7,71.9 200.6,26.6 185.5,26.6 172.3,71.9 163.2,26.6 150,26.6 163.6,90.6 179.5,90.6 193,43.3 
				206.5,90.6 222.4,90.6 236.1,26.6 222.8,26.6 			"/>
			<path class="st0" d="M37,78.8c-3.3,0.4-6.8,0.7-10.3,0.7c-10.9,0-12.9-3.9-12.9-11.5V26.6H0v40.9c0,12,3.3,24.3,27.4,24.3
				c5.6,0,14.9-0.8,22-2.4l1.3-0.3V26.6H37V78.8z"/>
			<path class="st0" d="M88,25.4l-7.4,12.8c2.5-0.2,5-0.4,7.6-0.4c10.9,0,13,3.9,13,11.5v18.6c0,7.6-2,11.5-13,11.5
				c-3.5,0-7-0.2-10.3-0.7V0L64.3,2v87.2l1.2,0.3c7.1,1.7,16.4,2.4,22,2.4c24.1,0,27.4-12.3,27.4-24.3V49.7
				C114.9,37.7,112.2,23,88,25.4"/>
			<polygon class="st0" points="244.5,90.6 258.1,90.6 258.1,0 244.5,2 			"/>
			<path class="st0" d="M268.3,25.4l-7.6,13.3c2.8-0.4,5.4-0.8,7.8-0.8c10.9,0,12.9,3.9,12.9,11.5v41.3h13.7V48
				C295.1,36,290.9,22.1,268.3,25.4"/>
			<path class="st0" d="M329.8,25.4c-16.6,0-25.4,8.4-25.4,24.3v18.2c0,16.1,8.4,24,25.6,24c7.7,0,15.9-1.3,22-3.6l0.9-0.3l-6-10.4
				c-5.9,1.4-11.3,2.1-15.9,2.1c-10.9,0-12.8-3.1-12.8-11.9v-3.5h36.1V49.9C354.2,33.6,346,25.4,329.8,25.4 M340.9,52.3h-22.8v-3.4
				c0-8.3,3.4-11.6,11.7-11.6c8.1,0,11.1,3.2,11.1,11.6V52.3z"/>
			<path class="st0" d="M425.5,25.4c-16.6,0-25.4,8.4-25.4,24.3v18.2c0,16.1,8.4,24,25.6,24c7.7,0,15.9-1.3,22-3.6l0.9-0.3l-6-10.4
				c-5.9,1.4-11.3,2.1-15.9,2.1c-10.9,0-12.8-3.1-12.8-11.9v-3.5h36.1V49.9C449.9,33.6,441.7,25.4,425.5,25.4 M436.6,52.3h-22.8
				v-3.4c0-8.3,3.4-11.6,11.7-11.6c8.1,0,11.1,3.2,11.1,11.6V52.3z"/>
		</g>
		<rect x="363.1" y="28.5" class="st0" width="13.7" height="62.2"/>
		<path class="st0" d="M378.2,41.1L378.2,41.1l7.5-13.4c1.5-0.3,2.7-0.5,2.7-0.5c5.4-0.8,9.7-0.6,13.2,0.4l-7.1,12.7
			c-1.6-0.4-3.9-0.6-5.9-0.6C383.5,39.7,378.2,41.1,378.2,41.1z"/>
	</g>
</g>
</svg>
